<?xml version="1.0" encoding="UTF-8"?><svg id="Layer_1" xmlns="http://www.w3.org/2000/svg" viewBox="0 0 400 200"><defs><style>.cls-1{opacity:.5;}.cls-1,.cls-2,.cls-3,.cls-4,.cls-5{fill:#8a96a3;}.cls-2,.cls-6{opacity:.1;}.cls-7,.cls-3{opacity:.25;}.cls-8{fill:none;}.cls-4{opacity:.6;}</style></defs><rect class="cls-8" width="400" height="200"/><path class="cls-2" d="M152.04,156.09l-29.12-98.24c-.66-2.22-2.98-3.48-5.2-2.82L10.46,86.83c-2.22.66-3.48,2.98-2.82,5.2l29.12,98.24c.66,2.22,2.98,3.48,5.2,2.82l107.26-31.79c2.22-.66,3.48-2.98,2.82-5.2ZM42.03,171.25l-22.29-75.18,95.23-28.23,22.29,75.18-95.23,28.23Z"/><rect class="cls-4" x="61.25" y="102.3" width="34.5" height="34.5" transform="translate(-30.74 27.24) rotate(-16.51)"/><path class="cls-2" d="M389.64,85.18l-102.44-31.7c-2.12-.65-4.36.53-5.02,2.65l-29.03,93.83c-.65,2.12.53,4.36,2.65,5.02l102.44,31.7c2.12.65,4.36-.53,5.02-2.65l29.03-93.83c.65-2.12-.53-4.36-2.65-5.02ZM358.5,165.57l-90.76-28.08,22.17-71.65,90.76,28.08-22.17,71.65Z"/><polygon class="cls-4" points="340.55 140.13 296.92 126.63 330.77 94.47 340.55 140.13"/><path class="cls-2" d="M264,72h-11v86c0,2.21-1.79,4-4,4h-101v16c0,2.21,1.79,4,4,4h112c2.21,0,4-1.79,4-4v-102c0-2.21-1.79-4-4-4Z"/><path class="cls-3" d="M133,91.85v66.15c0,2.21,1.79,4,4,4h9.83l2.39-.71c2.22-.66,3.48-2.98,2.82-5.2l-19.04-64.24Z"/><path id="Path_903" class="cls-3" d="M149.84,152.18c-.17,0-.33-.07-.45-.18-3.44-3.44-5.9-5.5-5.9-8.08-.04-2.06,1.59-3.76,3.65-3.81,1.06.04,2.05.56,2.7,1.4.65-.84,1.64-1.35,2.7-1.4,2.06.05,3.69,1.75,3.65,3.81,0,2.54-2.4,4.58-5.9,8.08-.12.12-.28.19-.45.18Z"/><path class="cls-1" d="M147.31,140.13c-.06,0-.11-.02-.17-.03-2.06.05-3.69,1.75-3.65,3.81,0,2.58,2.47,4.64,5.9,8.08.12.12.28.19.45.18.17,0,.33-.07.45-.18.14-.14.27-.27.41-.41l-3.4-11.45Z"/><g id="Group_33" class="cls-7"><path id="Path_38" class="cls-5" d="M166.29,152.49c-.33,0-.6-.27-.6-.6v-1.24c-2.98-.33-5.13-3.02-4.8-6.01.33-2.98,3.02-5.13,6.01-4.8,2.75.31,4.83,2.64,4.83,5.4,0,4.45-4.78,7.25-5.44,7.25Z"/></g><path class="cls-3" d="M249,24h-112c-2.21,0-4,1.79-4,4v130c0,2.21,1.79,4,4,4h112c2.21,0,4-1.79,4-4V28c0-2.21-1.79-4-4-4ZM226,32c1.66,0,3,1.34,3,3s-1.34,3-3,3-3-1.34-3-3,1.34-3,3-3ZM214,32c1.66,0,3,1.34,3,3s-1.34,3-3,3-3-1.34-3-3,1.34-3,3-3ZM196.49,152.92h-15v-4h15v4ZM241,144.92h-59.51v-4h59.51v4ZM241,130h-96V46h96v84ZM238,38c-1.66,0-3-1.34-3-3s1.34-3,3-3,3,1.34,3,3-1.34,3-3,3Z"/><circle class="cls-4" cx="186" cy="90" r="20"/><rect class="cls-2" x="133" y="5" width="4" height="11"/><g class="cls-6"><rect class="cls-5" x="114" y="24" width="11" height="4"/></g><polygon class="cls-2" points="241 62.59 199.15 104.71 185.51 90.08 145 130 241 130 241 62.59"/><path class="cls-3" d="M199.9,104.36c.17-.16.33-.33.5-.5l-.5.5Z"/><path class="cls-3" d="M186,90l-14.24,14.03c3.63,3.68,8.67,5.97,14.24,5.97,5.27,0,10.05-2.05,13.62-5.38l-13.62-14.62Z"/><rect class="cls-2" x="121.47" y="8.68" width="4" height="11.11" transform="translate(26.1 91.48) rotate(-45)"/></svg>